<svg data-v-0dd9719b="" version="1.0" xmlns="http://www.w3.org/2000/svg" xmlns:xlink="http://www.w3.org/1999/xlink" width="100%" height="100%" viewBox="0 0 340.000000 250.000000" preserveAspectRatio="xMidYMid meet" color-interpolation-filters="sRGB" style="margin: auto;"> <rect data-v-0dd9719b="" x="0" y="0" width="100%" height="100%" fill="#fff" fill-opacity="1" class="background"></rect> <rect data-v-0dd9719b="" x="0" y="0" width="100%" height="100%" fill="url(#watermark)" fill-opacity="1" class="watermarklayer"></rect> <g data-v-0dd9719b="" fill="#333" class="icon-text-wrapper icon-svg-group iconsvg" transform="translate(72.7847900390625,95)"><g class="iconsvg-imagesvg" transform="translate(0,0)"><g><rect fill="#333" fill-opacity="0" stroke-width="2" x="0" y="0" width="60" height="60" class="image-rect"></rect> <svg x="0" y="0" width="60" height="60" filtersec="colorsb5189098261" class="image-svg-svg primary" style="overflow: visible;"><svg xmlns="http://www.w3.org/2000/svg" viewBox="0 0 100 100"><path d="M53.46 98.92c8.29-1.68 14.63-10.08 18.45-19a88.77 88.77 0 0 1-18.45 2.45zM26.75 25.67a81.35 81.35 0 0 0-3.31 20.88h24.19V22.36a81.35 81.35 0 0 0-20.88 3.31zM47.63 0C39.34 1.68 33 10.08 29.17 19a89.64 89.64 0 0 1 18.46-2.45zm-30 46.55a90.24 90.24 0 0 1 2.45-18.46c-8.9 3.82-17.3 10.17-19 18.46zm60 5.82H53.46v24.19a81.65 81.65 0 0 0 20.87-3.3 81.5 81.5 0 0 0 3.31-20.89zM69 95.69A49.92 49.92 0 0 0 96.77 67.9 53.77 53.77 0 0 1 79 77.87a53.77 53.77 0 0 1-10 17.82zM32.11 3.23A49.89 49.89 0 0 0 4.32 31a53.57 53.57 0 0 1 17.82-10 53.57 53.57 0 0 1 9.97-17.77zM100 52.37H83.47A89.46 89.46 0 0 1 81 70.83c8.93-3.83 17.33-10.16 19-18.46z" fill="#3a46d6"></path><path d="M69 31h15.49v15.55H100V31H84.49V15.51H69V0H53.45v15.51H69V31H53.45v15.55H69zM31 69H15.52V53.45H0V69h15.52v15.49H31V100h15.55V84.49H31V69h15.55V53.45H31z" fill="#2ca6f1" fill-rule="evenodd"></path></svg></svg> <!----></g></g> <g transform="translate(67,7.443691253662109)"><g data-gra="path-name" fill-rule="" class="tp-name iconsvg-namesvg"><g transform="scale(1)"><g><path d="M24.31 0L17.25 0 16.07-4.48 8.3-4.48 7.09 0 0 0 7.8-24 16.41-24 24.31 0ZM9.64-9.77L14.73-9.77 13.7-13.7Q13.34-15.01 12.82-17.08 12.31-19.16 12.15-20.06L12.15-20.06Q12-19.22 11.56-17.31 11.13-15.4 9.64-9.77L9.64-9.77ZM40.75-23.9L47.21-23.9 47.21-9.51Q47.21-4.82 44.55-2.25 41.89 0.33 36.89 0.33L36.89 0.33Q32.01 0.33 29.38-2.17 26.76-4.67 26.76-9.37L26.76-9.37 26.76-23.9 33.25-23.9 33.25-9.87Q33.25-7.34 34.2-6.2 35.14-5.05 36.99-5.05L36.99-5.05Q38.97-5.05 39.86-6.19 40.75-7.32 40.75-9.91L40.75-9.91 40.75-23.9ZM60.32-8.7L58.68-8.7 58.68 0 52.23 0 52.23-23.9 60.06-23.9Q69.8-23.9 69.8-16.84L69.8-16.84Q69.8-12.68 65.74-10.41L65.74-10.41 72.71 0 65.38 0 60.32-8.7ZM58.68-19.01L58.68-13.55 59.89-13.55Q63.28-13.55 63.28-16.54L63.28-16.54Q63.28-19.01 59.96-19.01L59.96-19.01 58.68-19.01ZM88.74-23.9L95.2-23.9 95.2-9.51Q95.2-4.82 92.54-2.25 89.89 0.33 84.88 0.33L84.88 0.33Q80 0.33 77.37-2.17 74.75-4.67 74.75-9.37L74.75-9.37 74.75-23.9 81.24-23.9 81.24-9.87Q81.24-7.34 82.19-6.2 83.14-5.05 84.98-5.05L84.98-5.05Q86.96-5.05 87.85-6.19 88.74-7.32 88.74-9.91L88.74-9.91 88.74-23.9ZM116.78 0L110.63 0 105.74-17.21 105.6-17.21Q105.94-12.82 105.94-10.38L105.94-10.38 105.94 0 100.22 0 100.22-23.9 108.82-23.9 113.8-6.93 113.93-6.93 118.82-23.9 127.43-23.9 127.43 0 121.5 0 121.5-10.48Q121.5-11.3 121.52-12.29 121.55-13.29 121.75-17.18L121.75-17.18 121.6-17.18 116.78 0Z" transform="translate(0, 24)"></path></g> <!----> <!----> <!----> <!----> <!----> <!----> <g data-gra="path-name-1" fill="#333" transform="translate(0,27.329999923706055)"><g transform="scale(1.00071)"><path d="M16.65-17.25L16.65 0 11.97 0 11.97-7.03 6.55-7.03 6.55 0 1.86 0 1.86-17.25 6.55-17.25 6.55-10.86 11.97-10.86 11.97-17.25 16.65-17.25ZM36.53-8.65L36.53-8.65Q36.53-4.3 34.39-2.03 32.26 0.24 28.14 0.24L28.14 0.24Q24.08 0.24 21.91-2.04 19.74-4.32 19.74-8.67L19.74-8.67Q19.74-12.98 21.9-15.25 24.05-17.53 28.16-17.53L28.16-17.53Q32.28-17.53 34.4-15.27 36.53-13.02 36.53-8.65ZM24.65-8.65L24.65-8.65Q24.65-3.65 28.14-3.65L28.14-3.65Q29.91-3.65 30.76-4.86 31.62-6.08 31.62-8.65L31.62-8.65Q31.62-11.24 30.75-12.47 29.88-13.7 28.16-13.7L28.16-13.7Q24.65-13.7 24.65-8.65ZM50.95 0L39.64 0 39.64-17.25 44.31-17.25 44.31-3.76 50.95-3.76 50.95 0ZM68.36-8.99L68.36-8.99Q68.36-4.67 65.98-2.34 63.6 0 59.29 0L59.29 0 53.71 0 53.71-17.25 59.68-17.25Q63.84-17.25 66.1-15.13 68.36-13.01 68.36-8.99ZM63.52-8.83L63.52-8.83Q63.52-11.2 62.58-12.34 61.64-13.49 59.73-13.49L59.73-13.49 58.37-13.49 58.37-3.82 59.41-3.82Q61.54-3.82 62.53-5.06 63.52-6.29 63.52-8.83ZM76.14 0L71.45 0 71.45-17.25 76.14-17.25 76.14 0ZM96.29-17.25L96.29 0 90.18 0 83.88-12.16 83.77-12.16Q84-9.29 84-7.78L84-7.78 84 0 79.86 0 79.86-17.25 85.95-17.25 92.23-5.26 92.3-5.26Q92.14-7.87 92.14-9.45L92.14-9.45 92.14-17.25 96.29-17.25ZM106.95-6.5L106.95-10.1 114.4-10.1 114.4-0.8Q111.36 0.24 107.73 0.24L107.73 0.24Q103.74 0.24 101.56-2.08 99.39-4.39 99.39-8.67L99.39-8.67Q99.39-12.85 101.77-15.18 104.15-17.5 108.45-17.5L108.45-17.5Q110.08-17.5 111.52-17.2 112.97-16.89 114.04-16.42L114.04-16.42 112.57-12.76Q110.7-13.68 108.47-13.68L108.47-13.68Q106.43-13.68 105.32-12.35 104.2-11.02 104.2-8.56L104.2-8.56Q104.2-6.14 105.21-4.87 106.22-3.6 108.12-3.6L108.12-3.6Q109.16-3.6 110.03-3.8L110.03-3.8 110.03-6.5 106.95-6.5ZM129.2-5.24L129.2-5.24Q129.2-3.64 128.38-2.39 127.57-1.14 126.03-0.45 124.5 0.24 122.43 0.24L122.43 0.24Q120.71 0.24 119.54-0.01 118.37-0.25 117.11-0.85L117.11-0.85 117.11-5Q118.45-4.32 119.89-3.94 121.33-3.55 122.53-3.55L122.53-3.55Q123.57-3.55 124.05-3.91 124.54-4.27 124.54-4.84L124.54-4.84Q124.54-5.19 124.34-5.46 124.15-5.72 123.72-6 123.28-6.27 121.42-7.1L121.42-7.1Q119.73-7.87 118.89-8.59 118.04-9.31 117.64-10.24 117.23-11.18 117.23-12.45L117.23-12.45Q117.23-14.84 118.97-16.17 120.7-17.5 123.73-17.5L123.73-17.5Q126.41-17.5 129.2-16.26L129.2-16.26 127.77-12.66Q125.35-13.77 123.59-13.77L123.59-13.77Q122.68-13.77 122.27-13.45 121.86-13.14 121.86-12.66L121.86-12.66Q121.86-12.16 122.38-11.75 122.91-11.35 125.23-10.29L125.23-10.29Q127.46-9.29 128.33-8.14 129.2-6.99 129.2-5.24Z" transform="translate(-1.8600000143051147, 17.530000686645508)"></path></g></g></g></g> <!----></g></g><defs v-gra="od"></defs></svg>